# Blender v3.2.0 OBJ File: ''
# www.blender.org
mtllib test.mtl
o Torus
v 1.250000 0.000000 0.000000
v 1.155872 0.195458 0.000000
v 0.944370 0.243732 0.000000
v 0.774758 0.108471 0.000000
v 0.774758 -0.108471 0.000000
v 0.944370 -0.243732 0.000000
v 1.155872 -0.195458 0.000000
v 0.000000 0.000000 -1.250000
v 0.000000 0.195458 -1.155872
v 0.000000 0.243732 -0.944370
v 0.000000 0.108471 -0.774758
v 0.000000 -0.108471 -0.774758
v 0.000000 -0.243732 -0.944370
v 0.000000 -0.195458 -1.155872
v -1.250000 0.000000 -0.000000
v -1.155872 0.195458 -0.000000
v -0.944370 0.243732 -0.000000
v -0.774758 0.108471 -0.000000
v -0.774758 -0.108471 -0.000000
v -0.944370 -0.243732 -0.000000
v -1.155872 -0.195458 -0.000000
v 0.000000 0.000000 1.250000
v 0.000000 0.195458 1.155872
v 0.000000 0.243732 0.944370
v 0.000000 0.108471 0.774758
v 0.000000 -0.108471 0.774758
v 0.000000 -0.243732 0.944370
v 0.000000 -0.195458 1.155872
vt 0.750000 0.571429
vt 0.500000 0.714286
vt 0.500000 0.571429
vt 0.750000 0.857143
vt 0.500000 0.857143
vt 0.500000 1.000000
vt 0.750000 -0.000000
vt 0.500000 0.142857
vt 0.500000 -0.000000
vt 0.750000 0.142857
vt 0.500000 0.285714
vt 0.750000 0.285714
vt 0.500000 0.428571
vt 0.750000 0.428571
vt 1.000000 0.714286
vt 0.750000 0.714286
vt 1.000000 0.857143
vt 0.750000 1.000000
vt 1.000000 -0.000000
vt 1.000000 0.142857
vt 1.000000 0.285714
vt 1.000000 0.428571
vt 0.250000 0.571429
vt 0.000000 0.714286
vt 0.000000 0.571429
vt 0.250000 0.714286
vt 0.000000 0.857143
vt 0.250000 0.857143
vt 0.000000 1.000000
vt 0.250000 -0.000000
vt 0.000000 0.142857
vt 0.000000 -0.000000
vt 0.250000 0.142857
vt 0.000000 0.285714
vt 0.250000 0.285714
vt 0.000000 0.428571
vt 0.250000 0.428571
vt 0.250000 1.000000
vt 1.000000 0.571429
vt 1.000000 1.000000
vn 0.6694 0.3223 -0.6694
vn 0.2172 0.9517 -0.2172
vn -0.5291 0.6634 0.5291
vn -0.7071 0.0000 0.7071
vn -0.5291 -0.6634 0.5291
vn 0.2172 -0.9517 -0.2172
vn 0.6694 -0.3223 -0.6694
vn -0.6694 0.3223 -0.6694
vn -0.2172 0.9517 -0.2172
vn 0.5291 0.6634 0.5291
vn 0.7071 0.0000 0.7071
vn 0.5291 -0.6634 0.5291
vn -0.2172 -0.9517 -0.2172
vn -0.6694 -0.3223 -0.6694
vn -0.6694 0.3223 0.6694
vn -0.2172 0.9517 0.2172
vn 0.5291 0.6634 -0.5291
vn 0.7071 0.0000 -0.7071
vn 0.5291 -0.6634 -0.5291
vn -0.2172 -0.9517 0.2172
vn -0.6694 -0.3223 0.6694
vn 0.6694 0.3223 0.6694
vn 0.2172 0.9517 0.2172
vn -0.5291 0.6634 -0.5291
vn -0.7071 0.0000 -0.7071
vn -0.5291 -0.6634 -0.5291
vn 0.2172 -0.9517 0.2172
vn 0.6694 -0.3223 0.6694
usemtl None
s off
f 8/1/1 2/2/1 1/3/1
f 2/2/2 10/4/2 3/5/2
f 10/4/3 4/6/3 3/5/3
f 11/7/4 5/8/4 4/9/4
f 12/10/5 6/11/5 5/8/5
f 13/12/6 7/13/6 6/11/6
f 14/14/7 1/3/7 7/13/7
f 8/1/8 16/15/8 9/16/8
f 16/15/9 10/4/9 9/16/9
f 17/17/10 11/18/10 10/4/10
f 18/19/11 12/10/11 11/7/11
f 19/20/12 13/12/12 12/10/12
f 20/21/13 14/14/13 13/12/13
f 21/22/14 8/1/14 14/14/14
f 22/23/15 16/24/15 15/25/15
f 23/26/16 17/27/16 16/24/16
f 24/28/17 18/29/17 17/27/17
f 25/30/18 19/31/18 18/32/18
f 26/33/19 20/34/19 19/31/19
f 27/35/20 21/36/20 20/34/20
f 28/37/21 15/25/21 21/36/21
f 1/3/22 23/26/22 22/23/22
f 2/2/23 24/28/23 23/26/23
f 24/28/24 4/6/24 25/38/24
f 4/9/25 26/33/25 25/30/25
f 5/8/26 27/35/26 26/33/26
f 6/11/27 28/37/27 27/35/27
f 7/13/28 22/23/28 28/37/28
f 8/1/1 9/16/1 2/2/1
f 2/2/2 9/16/2 10/4/2
f 10/4/3 11/18/3 4/6/3
f 11/7/4 12/10/4 5/8/4
f 12/10/5 13/12/5 6/11/5
f 13/12/6 14/14/6 7/13/6
f 14/14/7 8/1/7 1/3/7
f 8/1/8 15/39/8 16/15/8
f 16/15/9 17/17/9 10/4/9
f 17/17/10 18/40/10 11/18/10
f 18/19/11 19/20/11 12/10/11
f 19/20/12 20/21/12 13/12/12
f 20/21/13 21/22/13 14/14/13
f 21/22/14 15/39/14 8/1/14
f 22/23/15 23/26/15 16/24/15
f 23/26/16 24/28/16 17/27/16
f 24/28/17 25/38/17 18/29/17
f 25/30/18 26/33/18 19/31/18
f 26/33/19 27/35/19 20/34/19
f 27/35/20 28/37/20 21/36/20
f 28/37/21 22/23/21 15/25/21
f 1/3/22 2/2/22 23/26/22
f 2/2/23 3/5/23 24/28/23
f 24/28/24 3/5/24 4/6/24
f 4/9/25 5/8/25 26/33/25
f 5/8/26 6/11/26 27/35/26
f 6/11/27 7/13/27 28/37/27
f 7/13/28 1/3/28 22/23/28
